# Blender 5.0.0
# www.blender.org
mtllib CandyCane.mtl
o CandyCane
v -0.818767 1.479301 0.070727
v -0.820292 1.666061 0.098002
v -0.868634 1.479301 0.050012
v -0.889299 1.669024 0.069298
v -0.889289 1.479301 0.000000
v -0.917895 1.670137 0.000000
v -0.868634 1.479301 -0.050011
v -0.889299 1.669024 -0.069297
v -0.818767 1.479301 -0.070727
v -0.820292 1.666061 -0.098001
v -0.768901 1.479301 -0.050011
v -0.751330 1.662710 -0.069297
v -0.748246 1.479301 0.000000
v -0.722778 1.661209 0.000000
v -0.768901 1.479301 0.050012
v -0.751330 1.662710 0.069298
v -0.821151 1.510150 0.098002
v -0.890244 1.510150 0.069298
v -0.918863 1.510150 0.000000
v -0.890244 1.510150 -0.069297
v -0.821151 1.510150 -0.098001
v -0.752061 1.510150 -0.069297
v -0.723443 1.510150 0.000000
v -0.752061 1.510150 0.069298
v -0.872530 1.865113 0.069298
v -0.805077 1.851096 0.098002
v -0.900532 1.870697 0.000000
v -0.872530 1.865113 -0.069297
v -0.805078 1.851096 -0.098001
v -0.737841 1.836322 -0.069297
v -0.710056 1.829982 0.000000
v -0.737841 1.836322 0.069298
v -0.748959 2.106194 0.069297
v -0.701525 2.056704 0.098001
v -0.769114 2.126270 -0.000000
v -0.748959 2.106194 -0.069298
v -0.701525 2.056704 -0.098001
v -0.655615 2.005497 -0.069297
v -0.636762 1.983410 -0.000000
v -0.655615 2.005497 0.069297
v -0.416289 2.208928 0.069297
v -0.416289 2.139721 0.098001
v -0.416289 2.237660 -0.000000
v -0.416289 2.208928 -0.069298
v -0.416289 2.139721 -0.098002
v -0.416289 2.070767 -0.069298
v -0.416289 2.042289 -0.000000
v -0.416289 2.070767 0.069297
v -0.005320 -0.105176 -0.070727
v -0.003795 1.666061 -0.098002
v 0.044546 -0.105176 -0.050012
v 0.065211 1.669024 -0.069298
v 0.065201 -0.105175 -0.000000
v 0.093807 1.670137 -0.000001
v 0.044546 -0.105175 0.050011
v 0.065211 1.669024 0.069297
v -0.005320 -0.105175 0.070727
v -0.003795 1.666061 0.098001
v -0.055186 -0.105175 0.050011
v -0.072758 1.662710 0.069297
v -0.075842 -0.105175 -0.000000
v -0.101309 1.661209 -0.000000
v -0.055186 -0.105176 -0.050011
v -0.072758 1.662710 -0.069298
v -0.002936 -0.074326 -0.098001
v 0.066156 -0.074326 -0.069298
v 0.094776 -0.074326 -0.000000
v 0.066156 -0.074326 0.069297
v -0.002936 -0.074326 0.098001
v -0.072027 -0.074326 0.069297
v -0.100644 -0.074326 0.000000
v -0.072027 -0.074326 -0.069297
v 0.048442 1.865113 -0.069298
v -0.019010 1.851096 -0.098002
v 0.076444 1.870697 -0.000001
v 0.048443 1.865113 0.069297
v -0.019010 1.851096 0.098001
v -0.086247 1.836322 0.069297
v -0.114032 1.829982 -0.000000
v -0.086247 1.836322 -0.069298
v -0.075128 2.106194 -0.069298
v -0.122563 2.056704 -0.098002
v -0.054974 2.126270 -0.000000
v -0.075128 2.106194 0.069297
v -0.122562 2.056704 0.098001
v -0.168472 2.005497 0.069297
v -0.187326 1.983410 -0.000000
v -0.168472 2.005497 -0.069298
vn -0.3838 0.0022 0.9234
vn -0.9243 0.0055 0.3816
vn -0.9243 0.0055 -0.3816
vn -0.3838 0.0022 -0.9234
vn 0.3839 -0.0020 -0.9234
vn 0.9244 -0.0043 -0.3814
vn 0.9227 -0.0706 0.3791
vn 0.9244 -0.0042 0.3814
vn 0.3839 -0.0020 0.9234
vn -0.0000 -1.0000 -0.0000
vn -0.2929 -0.6459 0.7050
vn -0.6918 -0.6632 0.2857
vn -0.6918 -0.6632 -0.2857
vn -0.2929 -0.6459 -0.7050
vn 0.3015 -0.6183 -0.7258
vn 0.7419 -0.5965 -0.3064
vn 0.7419 -0.5965 0.3064
vn 0.3015 -0.6183 0.7258
vn -0.8278 0.4250 -0.3663
vn -0.9215 0.0793 0.3802
vn 0.3847 -0.0308 -0.9225
vn 0.3847 -0.0308 0.9225
vn -0.3842 0.0322 0.9227
vn -0.9215 0.0793 -0.3802
vn 0.9227 -0.0706 -0.3791
vn -0.3842 0.0322 -0.9227
vn 0.2430 -0.9001 0.3615
vn -0.3573 0.1817 0.9161
vn 0.3604 -0.1786 0.9155
vn 0.8386 -0.4043 -0.3651
vn -0.3573 0.1817 -0.9161
vn -0.8278 0.4250 0.3663
vn 0.8386 -0.4043 0.3651
vn 0.3604 -0.1786 -0.9155
vn 0.1112 -0.3935 -0.9126
vn -0.2788 0.8924 -0.3548
vn -0.1183 0.3936 0.9116
vn 0.1112 -0.3935 0.9126
vn 0.2430 -0.9001 -0.3615
vn -0.1183 0.3936 -0.9116
vn -0.2788 0.8924 0.3548
vn 0.3839 0.0002 -0.9234
vn 0.9243 0.0005 -0.3816
vn 0.9243 0.0005 0.3816
vn 0.3839 0.0002 0.9234
vn -0.3840 -0.0002 0.9233
vn -0.9244 -0.0004 0.3813
vn -0.9227 -0.0706 -0.3791
vn -0.9244 -0.0004 -0.3813
vn -0.3840 -0.0002 -0.9233
vn 0.2929 -0.6459 -0.7050
vn 0.6918 -0.6632 -0.2857
vn 0.6918 -0.6632 0.2857
vn 0.2929 -0.6459 0.7050
vn -0.3015 -0.6183 0.7258
vn -0.7419 -0.5965 0.3064
vn -0.7419 -0.5965 -0.3064
vn -0.3015 -0.6183 -0.7258
vn 0.8278 0.4250 0.3663
vn 0.9215 0.0793 -0.3802
vn -0.3847 -0.0308 0.9225
vn -0.3847 -0.0308 -0.9225
vn 0.3842 0.0322 -0.9227
vn 0.9215 0.0793 0.3802
vn -0.9227 -0.0706 0.3791
vn 0.3842 0.0322 0.9227
vn -0.2350 -0.9024 -0.3612
vn 0.3573 0.1817 -0.9161
vn -0.3604 -0.1786 -0.9155
vn -0.8386 -0.4043 0.3651
vn 0.3573 0.1817 0.9161
vn 0.8278 0.4250 -0.3663
vn -0.8386 -0.4043 -0.3651
vn -0.3604 -0.1786 0.9155
vn -0.1081 -0.3946 0.9125
vn 0.2726 0.8944 0.3546
vn 0.1155 0.3947 -0.9115
vn -0.1081 -0.3946 -0.9125
vn -0.2350 -0.9024 0.3612
vn 0.1155 0.3947 0.9115
vn 0.2726 0.8944 -0.3546
vt 0.834219 0.744141
vt 0.840860 0.752951
vt 0.837070 0.756037
vt 0.830299 0.747063
vt 0.834162 0.744157
vt 0.839843 0.751687
vt 0.838521 0.752754
vt 0.832799 0.745173
vt 0.844631 0.749845
vt 0.838139 0.741220
vt 0.846188 0.748552
vt 0.839763 0.740010
vt 0.854046 0.757590
vt 0.852737 0.759125
vt 0.836060 0.736056
vt 0.833686 0.737825
vt 0.832703 0.738558
vt 0.838434 0.734287
vt 0.839417 0.733555
vt 0.837041 0.737609
vt 0.833752 0.740061
vt 0.832390 0.741076
vt 0.835391 0.735299
vt 0.832561 0.737407
vt 0.833731 0.739258
vt 0.837651 0.736337
vt 0.836563 0.734425
vt 0.839274 0.735127
vt 0.846313 0.766453
vt 0.844960 0.767954
vt 0.863223 0.776898
vt 0.863518 0.774907
vt 0.835495 0.757309
vt 0.846313 0.766454
vt 0.849547 0.762806
vt 0.849547 0.762806
vt 0.864556 0.765247
vt 0.864692 0.763196
vt 0.879690 0.757215
vt 0.880895 0.758831
vt 0.864116 0.770093
vt 0.863518 0.774907
vt 0.864556 0.765247
vt 0.883810 0.762743
vt 0.887951 0.768300
vt 0.886737 0.766670
vt 0.813646 0.619644
vt 0.887186 0.718427
vt 0.891227 0.715677
vt 0.817566 0.616723
vt 0.892897 0.714531
vt 0.819190 0.615512
vt 0.887186 0.718427
vt 0.813646 0.619644
vt 0.883132 0.721153
vt 0.809726 0.622565
vt 0.881449 0.722275
vt 0.808102 0.623775
vt 0.883132 0.721152
vt 0.887863 0.732388
vt 0.889708 0.731573
vt 0.812206 0.617994
vt 0.815035 0.615886
vt 0.816207 0.615013
vt 0.809377 0.620103
vt 0.808205 0.620976
vt 0.898567 0.727512
vt 0.900392 0.726645
vt 0.903742 0.746702
vt 0.901749 0.746415
vt 0.898567 0.727512
vt 0.894147 0.729569
vt 0.892196 0.744649
vt 0.890192 0.744193
vt 0.896966 0.745613
vt 0.901749 0.746415
vt 0.892195 0.744649
s 0
usemtl Winter_Pack_Texture
f 17/1/1 2/2/1 4/3/1 18/4/1
f 18/5/2 4/6/2 6/7/2 19/8/2
f 19/8/3 6/7/3 8/6/3 20/5/3
f 20/4/4 8/3/4 10/2/4 21/1/4
f 21/1/5 10/2/5 12/9/5 22/10/5
f 22/10/6 12/9/6 14/11/6 23/12/6
f 16/9/7 14/11/7 31/13/7 32/14/7
f 23/12/8 14/11/8 16/9/8 24/10/8
f 24/10/9 16/9/9 2/2/9 17/1/9
f 1/15/10 3/16/10 5/17/10 7/16/10 9/15/10 11/18/10 13/19/10 15/18/10
f 3/16/11 1/15/11 17/20/11 18/21/11
f 5/17/12 3/16/12 18/21/12 19/22/12
f 7/16/13 5/17/13 19/22/13 20/21/13
f 9/15/14 7/16/14 20/21/14 21/20/14
f 11/23/15 9/24/15 21/25/15 22/26/15
f 13/27/16 11/23/16 22/26/16 23/28/16
f 15/23/17 13/27/17 23/28/17 24/26/17
f 1/24/18 15/23/18 24/26/18 17/25/18
f 28/29/19 27/30/19 35/31/19 36/32/19
f 6/33/20 4/3/20 25/34/20 27/30/20
f 12/9/21 10/2/21 29/35/21 30/14/21
f 2/2/22 16/9/22 32/14/22 26/36/22
f 4/3/23 2/2/23 26/36/23 25/34/23
f 8/3/24 6/33/24 27/30/24 28/29/24
f 14/11/25 12/9/25 30/14/25 31/13/25
f 10/2/26 8/3/26 28/29/26 29/35/26
f 40/37/27 39/38/27 47/39/27 48/40/27
f 25/34/28 26/36/28 34/41/28 33/42/28
f 26/36/29 32/14/29 40/37/29 34/41/29
f 31/13/30 30/14/30 38/43/30 39/38/30
f 29/35/31 28/29/31 36/32/31 37/41/31
f 27/30/32 25/34/32 33/42/32 35/31/32
f 32/14/33 31/13/33 39/38/33 40/37/33
f 30/14/34 29/35/34 37/41/34 38/43/34
f 38/43/35 37/41/35 45/44/35 46/40/35
f 36/32/36 35/31/36 43/45/36 44/46/36
f 33/42/37 34/41/37 42/44/37 41/46/37
f 34/41/38 40/37/38 48/40/38 42/44/38
f 39/38/39 38/43/39 46/40/39 47/39/39
f 37/41/40 36/32/40 44/46/40 45/44/40
f 35/31/41 33/42/41 41/46/41 43/45/41
f 65/47/42 50/48/42 52/49/42 66/50/42
f 66/50/43 52/49/43 54/51/43 67/52/43
f 67/52/44 54/51/44 56/49/44 68/50/44
f 68/50/45 56/49/45 58/53/45 69/54/45
f 69/54/46 58/53/46 60/55/46 70/56/46
f 70/56/47 60/55/47 62/57/47 71/58/47
f 64/59/48 62/57/48 79/60/48 80/61/48
f 71/58/49 62/57/49 64/59/49 72/56/49
f 72/56/50 64/59/50 50/48/50 65/47/50
f 49/62/10 51/63/10 53/64/10 55/63/10 57/62/10 59/65/10 61/66/10 63/65/10
f 51/63/51 49/62/51 65/47/51 66/50/51
f 53/64/52 51/63/52 66/50/52 67/52/52
f 55/63/53 53/64/53 67/52/53 68/50/53
f 57/62/54 55/63/54 68/50/54 69/54/54
f 59/65/55 57/62/55 69/54/55 70/56/55
f 61/66/56 59/65/56 70/56/56 71/58/56
f 63/65/57 61/66/57 71/58/57 72/56/57
f 49/62/58 63/65/58 72/56/58 65/47/58
f 76/67/59 75/68/59 83/69/59 84/70/59
f 54/51/60 52/49/60 73/71/60 75/68/60
f 60/55/61 58/53/61 77/72/61 78/61/61
f 50/48/62 64/59/62 80/61/62 74/72/62
f 52/49/63 50/48/63 74/72/63 73/71/63
f 56/49/64 54/51/64 75/68/64 76/67/64
f 62/57/65 60/55/65 78/61/65 79/60/65
f 58/53/66 56/49/66 76/67/66 77/72/66
f 88/73/67 87/74/67 47/39/67 46/40/67
f 73/71/68 74/72/68 82/75/68 81/76/68
f 74/72/69 80/61/69 88/73/69 82/75/69
f 79/60/70 78/61/70 86/77/70 87/74/70
f 77/72/71 76/67/71 84/70/71 85/75/71
f 75/68/72 73/71/72 81/76/72 83/69/72
f 80/61/73 79/60/73 87/74/73 88/73/73
f 78/61/74 77/72/74 85/75/74 86/77/74
f 86/77/75 85/75/75 42/44/75 48/40/75
f 84/70/76 83/69/76 43/45/76 41/46/76
f 81/76/77 82/75/77 45/44/77 44/46/77
f 82/75/78 88/73/78 46/40/78 45/44/78
f 87/74/79 86/77/79 48/40/79 47/39/79
f 85/75/80 84/70/80 41/46/80 42/44/80
f 83/69/81 81/76/81 44/46/81 43/45/81
